<svg xmlns="http://www.w3.org/2000/svg" viewBox="0 0 1200 1500" role="img"><defs><linearGradient id="bg" x1="0" y1="0" x2="1" y2="1"><stop stop-color="#050505"/><stop offset=".55" stop-color="#171411"/><stop offset="1" stop-color="#020202"/></linearGradient><linearGradient id="skin" x1="0" y1="0" x2="1" y2="1"><stop stop-color="#e2b4a0"/><stop offset=".5" stop-color="#b87969"/><stop offset="1" stop-color="#6d413f"/></linearGradient><linearGradient id="hair"><stop stop-color="#18110f"/><stop offset=".5" stop-color="#3b2722"/><stop offset="1" stop-color="#090706"/></linearGradient><filter id="sh"><feDropShadow dx="15" dy="20" stdDeviation="18" flood-opacity=".45"/></filter></defs><rect width="1200" height="1500" fill="url(#bg)"/><path d="M0 1200L1200 620v880H0z" fill="#0c0a09"/><g opacity=".35" stroke="#c8a96b"><path d="M80 230h330M850 280h250M850 1240h260"/><path d="M1020 380v230"/></g><g transform="translate(85 80)" filter="url(#sh)"><path d="M300 1320c52-219 169-328 333-347 180-21 326 65 396 347z" fill="#080808"/><path d="M430 1320c28-151 91-249 194-294 91 40 158 136 199 294z" fill="#1b1513"/><ellipse cx="625" cy="560" rx="255" ry="340" fill="url(#skin)"/><path d="M356 590c-34-283 116-464 296-466 194-3 326 177 294 471-66-166-178-245-304-245-129 0-223 82-286 240z" fill="url(#hair)"/><path d="M848 339c85 106 104 253 56 422-31 107-86 194-162 257 68-135 82-280 56-420-15-86 2-178 50-259z" fill="#120c0b"/><path d="M454 587c52-38 112-40 163-5" fill="none" stroke="#4f322f" stroke-width="16" stroke-linecap="round"/><path d="M669 578c55-35 114-28 157 13" fill="none" stroke="#4f322f" stroke-width="16" stroke-linecap="round"/><ellipse cx="535" cy="617" rx="31" ry="22" fill="#181313"/><ellipse cx="744" cy="613" rx="31" ry="22" fill="#181313"/><circle cx="528" cy="609" r="7" fill="#f4e9da"/><circle cx="737" cy="605" r="7" fill="#f4e9da"/><path d="M627 650c-7 58-16 95-34 123 25 13 51 14 76 1" fill="none" stroke="#8e5c54" stroke-width="9" stroke-linecap="round"/><path d="M535 842c62 46 139 45 204-2-44 86-164 91-204 2z" fill="#6f1e2e"/><path d="M554 847c48 17 110 15 167-4-39 36-128 41-167 4z" fill="#b74d61"/><path d="M468 1046c108 68 229 70 332-3" fill="none" stroke="#c8a96b" stroke-width="5" opacity=".72"/><path d="M464 1070c109 94 238 95 345-1" fill="none" stroke="#5a4933" stroke-width="2"/></g><g font-family="Georgia,serif"><text x="82" y="128" font-size="24" fill="#eee7dc" letter-spacing="7">NOIR / COUTURE</text><text x="84" y="164" font-size="12" fill="#c8a96b" letter-spacing="5">KLEOPÁTRA BEAUTY EDITORIAL</text></g></svg>