<svg xmlns="http://www.w3.org/2000/svg" viewBox="0 0 1200 1500" role="img"><defs><linearGradient id="bg" x1="0" y1="0" x2="1" y2="1"><stop stop-color="#fffdfd"/><stop offset=".45" stop-color="#f0e9f7"/><stop offset="1" stop-color="#e5f4f4"/></linearGradient><radialGradient id="skin"><stop stop-color="#f8d5c7"/><stop offset="1" stop-color="#c78a84"/></radialGradient><linearGradient id="hair" x1="0" y1="0" x2="1" y2="1"><stop stop-color="#eadfd9"/><stop offset=".48" stop-color="#a7838d"/><stop offset="1" stop-color="#43333f"/></linearGradient><linearGradient id="dress"><stop stop-color="#ffffff"/><stop offset=".5" stop-color="#d8c5e5"/><stop offset="1" stop-color="#b7d8d5"/></linearGradient><filter id="sh"><feDropShadow dy="20" stdDeviation="22" flood-opacity=".14"/></filter></defs><rect width="1200" height="1500" fill="url(#bg)"/><g opacity=".72"><circle cx="180" cy="260" r="110" fill="#fff"/><circle cx="1010" cy="310" r="170" fill="#fff"/><circle cx="1040" cy="1180" r="120" fill="#fff"/><circle cx="160" cy="1190" r="80" fill="#fff"/></g><g transform="translate(80 70)" filter="url(#sh)"><path d="M300 1320c45-210 159-323 315-350 172-29 319 44 402 350z" fill="url(#dress)"/><ellipse cx="620" cy="565" rx="260" ry="338" fill="url(#skin)"/><path d="M347 573c-21-291 128-458 301-449 173 9 305 184 274 455-57-159-165-235-286-238-131-3-228 77-289 232z" fill="url(#hair)"/><path d="M365 486c34-188 112-304 241-356-68 126-57 252-24 356-69-51-137-52-217 0z" fill="#f3e9e5" opacity=".65"/><path d="M847 350c86 93 110 229 70 385-26 103-80 192-154 255 69-127 84-273 61-409-14-86-7-163 23-231z" fill="#5b4856" opacity=".7"/><path d="M448 590c49-37 104-39 153-7" fill="none" stroke="#6f4b50" stroke-width="15" stroke-linecap="round"/><path d="M655 584c52-33 108-28 151 9" fill="none" stroke="#6f4b50" stroke-width="15" stroke-linecap="round"/><ellipse cx="526" cy="619" rx="30" ry="22" fill="#41343a"/><ellipse cx="729" cy="616" rx="30" ry="22" fill="#41343a"/><circle cx="519" cy="612" r="7" fill="#fff"/><circle cx="722" cy="609" r="7" fill="#fff"/><path d="M615 653c-8 55-17 91-33 119 24 12 49 12 73 0" fill="none" stroke="#aa716e" stroke-width="9" stroke-linecap="round"/><path d="M535 839c59 43 132 43 195 0-41 76-153 82-195 0z" fill="#ad5d72"/><path d="M550 842c45 16 109 15 162-2-36 34-121 40-162 2z" fill="#e7a6b1"/><circle cx="425" cy="720" r="42" fill="#f7b8c6" opacity=".22"/><circle cx="830" cy="720" r="42" fill="#f7b8c6" opacity=".22"/><path d="M466 1040c104 72 226 74 328 2" fill="none" stroke="#fff" stroke-width="6" opacity=".8"/></g><g font-family="Arial,Helvetica,sans-serif"><text x="80" y="126" font-size="23" fill="#6e5d77" letter-spacing="8">PEARL / LUMINOUS BEAUTY</text><text x="82" y="160" font-size="12" fill="#b36ad8" letter-spacing="5">KLEOPÁTRA 2026</text></g></svg>