<svg xmlns="http://www.w3.org/2000/svg" viewBox="0 0 1200 1500" role="img"><defs><linearGradient id="bg" x1="0" y1="0" x2="1" y2="1"><stop stop-color="#fff7f5"/><stop offset=".5" stop-color="#ead0c8"/><stop offset="1" stop-color="#c99187"/></linearGradient><radialGradient id="skin"><stop stop-color="#f7d2c1"/><stop offset="1" stop-color="#c98c7f"/></radialGradient><linearGradient id="hair"><stop stop-color="#8d594f"/><stop offset=".5" stop-color="#5b3936"/><stop offset="1" stop-color="#241819"/></linearGradient><filter id="sh"><feDropShadow dy="18" stdDeviation="20" flood-color="#713e43" flood-opacity=".2"/></filter></defs><rect width="1200" height="1500" fill="url(#bg)"/><g opacity=".28" fill="none" stroke="#fff"><circle cx="180" cy="260" r="120"/><circle cx="1000" cy="300" r="180"/><circle cx="1040" cy="1170" r="130"/></g><g transform="translate(80 75)" filter="url(#sh)"><path d="M305 1320c48-212 160-320 321-349 170-31 321 45 402 349z" fill="#d7a099"/><path d="M430 1320c31-148 94-244 194-291 101 48 173 143 217 291z" fill="#f4dfda"/><ellipse cx="624" cy="565" rx="260" ry="342" fill="url(#skin)"/><path d="M349 586c-28-281 119-458 302-461 185-3 323 177 293 464-59-157-171-238-301-238-128 0-226 82-294 235z" fill="url(#hair)"/><path d="M833 340c91 101 115 244 75 402-31 122-89 213-172 278 74-132 96-282 70-424-16-93-7-178 27-256z" fill="#4e3030"/><path d="M449 591c52-37 111-39 161-4" fill="none" stroke="#69423f" stroke-width="15" stroke-linecap="round"/><path d="M666 585c54-34 112-27 157 12" fill="none" stroke="#69423f" stroke-width="15" stroke-linecap="round"/><ellipse cx="530" cy="620" rx="30" ry="22" fill="#3b2929"/><ellipse cx="740" cy="616" rx="30" ry="22" fill="#3b2929"/><circle cx="523" cy="612" r="7" fill="#fff"/><circle cx="733" cy="608" r="7" fill="#fff"/><path d="M620 655c-6 55-15 91-31 119 23 12 48 13 71 1" fill="none" stroke="#a36d65" stroke-width="9" stroke-linecap="round"/><path d="M535 840c60 44 136 44 199 0-43 81-157 86-199 0z" fill="#a34659"/><path d="M553 845c47 17 111 16 165-3-37 34-124 39-165 3z" fill="#dc8492"/><path d="M478 1047c105 70 226 70 326 1" fill="none" stroke="#fff7f5" stroke-width="6" opacity=".75"/></g><g font-family="Arial,Helvetica,sans-serif"><text x="82" y="126" font-size="23" fill="#6d4548" letter-spacing="8">ROSE GOLD / SOFT GLAM</text><text x="84" y="160" font-size="12" fill="#9d4f5c" letter-spacing="5">WARM LUXURY BEAUTY</text></g></svg>